<?xml version="1.0" encoding="utf-8"?>
<!-- Generator: Adobe Illustrator 24.1.1, SVG Export Plug-In . SVG Version: 6.00 Build 0)  -->
<svg version="1.1" id="Capa_1" xmlns="http://www.w3.org/2000/svg" xmlns:xlink="http://www.w3.org/1999/xlink" x="0px" y="0px"
	 viewBox="0 0 340 272" style="enable-background:new 0 0 340 272;" xml:space="preserve">
<style type="text/css">
	.st0{fill:#333333;stroke:#000000;stroke-miterlimit:10;}
</style>
<polygon class="st0" points="118,67.3888 163.5626,146.3056 72.4374,146.3056 "/>
<polygon class="st0" points="172,146.6112 126.4374,67.6944 217.5626,67.6944 "/>
<g>
	<path class="st0" d="M93.7593,178.7051h-6.1875l-1.793-5.6074H76.814l-1.7754,5.6074h-6.1523l9.1758-25.207h6.7324
		L93.7593,178.7051z M84.478,168.7383l-2.707-8.4727c-0.1992-0.6328-0.3398-1.3887-0.4219-2.2676h-0.1406
		c-0.0586,0.7383-0.2051,1.4707-0.4395,2.1973l-2.7422,8.543H84.478z"/>
	<path class="st0" d="M98.1514,178.7051v-25.207h9.1758c2.8125,0,4.9746,0.5156,6.4863,1.5469s2.2676,2.4844,2.2676,4.3594
		c0,1.3594-0.46,2.5488-1.3799,3.5684s-2.0947,1.7285-3.5244,2.127v0.0703c1.793,0.2227,3.2256,0.8848,4.2979,1.9863
		s1.6084,2.4434,1.6084,4.0254c0,2.3086-0.8262,4.1387-2.4785,5.4922s-3.9082,2.0313-6.7676,2.0313H98.1514z M103.8291,157.6816
		v5.9766h2.4961c1.1719,0,2.0947-0.2852,2.7686-0.8535s1.0107-1.3496,1.0107-2.3457c0-1.8516-1.3828-2.7773-4.1484-2.7773H103.8291z
		 M103.8291,167.877v6.6445h3.0762c1.3125,0,2.3408-0.3047,3.085-0.9141s1.1162-1.4414,1.1162-2.4961
		c0-1.0078-0.3662-1.7988-1.0986-2.373s-1.7549-0.8613-3.0674-0.8613H103.8291z"/>
	<path class="st0" d="M143.8613,178.7051h-6.5215l-3.9199-6.4863c-0.293-0.4922-0.5742-0.9316-0.8438-1.3184
		s-0.542-0.7188-0.8174-0.9941s-0.5625-0.4863-0.8613-0.6328s-0.624-0.2188-0.9756-0.2188h-1.5293v9.6504h-5.6777v-25.207h9
		c6.1172,0,9.1758,2.2852,9.1758,6.8555c0,0.8789-0.1348,1.6895-0.4043,2.4336s-0.6504,1.416-1.1426,2.0137
		s-1.0869,1.1133-1.7842,1.5469s-1.4736,0.7734-2.3291,1.0195v0.0703c0.375,0.1172,0.7383,0.3066,1.0898,0.5703
		s0.6914,0.5723,1.0195,0.9238s0.6416,0.7285,0.9404,1.1328s0.5713,0.8008,0.8174,1.1875L143.8613,178.7051z M128.3926,157.752
		v7.0137h2.4609c1.2188,0,2.1973-0.3516,2.9355-1.0547c0.75-0.7148,1.125-1.5996,1.125-2.6543c0-2.2031-1.3184-3.3047-3.9551-3.3047
		H128.3926z"/>
	<path class="st0" d="M162.9971,178.7051h-15.1172v-25.207h14.5371v4.623h-8.8594v5.6074h8.2441v4.6055h-8.2441v5.7656h9.4395
		V178.7051z"/>
	<path class="st0" d="M189.0762,167.7891c0,7.5703-3.5273,11.3555-10.582,11.3555c-6.8438,0-10.2661-3.6973-10.2661-11.0918V153.498
		h5.6958v14.625c0,4.0781,1.5938,6.1172,4.7813,6.1172c3.1289,0,4.6934-1.9688,4.6934-5.9063V153.498h5.6777V167.7891z"/>
	<path class="st0" d="M195.8633,178.7051v-25.207h8.9297c8.9531,0,13.4297,4.0957,13.4297,12.2871
		c0,3.9258-1.2217,7.0605-3.665,9.4043s-5.6982,3.5156-9.7646,3.5156H195.8633z M201.541,158.1211v15.9785h2.8125
		c2.4609,0,4.3916-0.7383,5.792-2.2148s2.1006-3.4863,2.1006-6.0293c0-2.4023-0.6943-4.293-2.083-5.6699
		s-3.3369-2.0645-5.8447-2.0645H201.541z"/>
	<path class="st0" d="M238.9307,178.7051h-15.1172v-25.207h14.5371v4.623h-8.8594v5.6074h8.2441v4.6055h-8.2441v5.7656h9.4395
		V178.7051z"/>
	<path class="st0" d="M265.8633,153.498l-8.6836,25.207h-6.4336l-8.5781-25.207h6.1172l5.2559,17.543
		c0.2813,0.9492,0.4512,1.7871,0.5098,2.5137h0.1055c0.082-0.7852,0.2637-1.6465,0.5449-2.584l5.2207-17.4727H265.8633z"/>
</g>
<g>
</g>
<g>
</g>
<g>
</g>
<g>
</g>
<g>
</g>
<g>
</g>
<g>
</g>
<g>
</g>
<g>
</g>
<g>
</g>
<g>
</g>
</svg>
